{
  "accessors": [
    {
      "bufferView": 1,
      "componentType": 5126,
      "count": 34246,
      "max": [
        159.86329650878906,
        17.028392791748047,
        138.74766540527344
      ],
      "min": [
        -38.19034957885742,
        -410.9735107421875,
        18.490999221801758
      ],
      "type": "VEC3"
    },
    {
      "bufferView": 1,
      "byteOffset": 410952,
      "componentType": 5126,
      "count": 34246,
      "max": [
        1.0,
        1.0,
        1.0
      ],
      "min": [
        -1.0,
        -1.0,
        -1.0
      ],
      "type": "VEC3"
    },
    {
      "bufferView": 0,
      "componentType": 5125,
      "count": 66825,
      "type": "SCALAR"
    },
    {
      "bufferView": 1,
      "byteOffset": 821904,
      "componentType": 5126,
      "count": 65532,
      "max": [
        149.5948944091797,
        12.042003631591797,
        142.0098114013672
      ],
      "min": [
        -38.19034957885742,
        -409.0506896972656,
        -0.46939998865127563
      ],
      "type": "VEC3"
    },
    {
      "bufferView": 1,
      "byteOffset": 1608288,
      "componentType": 5126,
      "count": 65532,
      "max": [
        1.0,
        1.0,
        1.0
      ],
      "min": [
        -1.0,
        -1.0,
        -1.0
      ],
      "type": "VEC3"
    },
    {
      "bufferView": 0,
      "byteOffset": 267300,
      "componentType": 5125,
      "count": 185076,
      "type": "SCALAR"
    },
    {
      "bufferView": 1,
      "byteOffset": 2394672,
      "componentType": 5126,
      "count": 54572,
      "max": [
        159.86329650878906,
        19.55032730102539,
        138.79345703125
      ],
      "min": [
        -27.656267166137695,
        -427.679931640625,
        -0.4648900032043457
      ],
      "type": "VEC3"
    },
    {
      "bufferView": 1,
      "byteOffset": 3049536,
      "componentType": 5126,
      "count": 54572,
      "max": [
        1.0,
        1.0,
        1.0
      ],
      "min": [
        -1.0,
        -1.0,
        -1.0
      ],
      "type": "VEC3"
    },
    {
      "bufferView": 0,
      "byteOffset": 1007604,
      "componentType": 5125,
      "count": 131136,
      "type": "SCALAR"
    },
    {
      "bufferView": 1,
      "byteOffset": 3704400,
      "componentType": 5126,
      "count": 7727,
      "max": [
        148.63633728027344,
        19.55032730102539,
        142.0098114013672
      ],
      "min": [
        -26.963394165039063,
        -441.86639404296875,
        28.511499404907227
      ],
      "type": "VEC3"
    },
    {
      "bufferView": 1,
      "byteOffset": 3797124,
      "componentType": 5126,
      "count": 7727,
      "max": [
        1.0,
        1.0,
        1.0
      ],
      "min": [
        -1.0,
        -0.9977554082870483,
        -1.0
      ],
      "type": "VEC3"
    },
    {
      "bufferView": 0,
      "byteOffset": 1532148,
      "componentType": 5125,
      "count": 23409,
      "type": "SCALAR"
    },
    {
      "bufferView": 1,
      "byteOffset": 3889848,
      "componentType": 5126,
      "count": 12882,
      "max": [
        149.3941192626953,
        19.370912551879883,
        138.74766540527344
      ],
      "min": [
        -27.716760635375977,
        -442.6380310058594,
        19.903730392456055
      ],
      "type": "VEC3"
    },
    {
      "bufferView": 1,
      "byteOffset": 4044432,
      "componentType": 5126,
      "count": 12882,
      "max": [
        1.0,
        0.9999998211860657,
        1.0
      ],
      "min": [
        -1.0,
        -1.0,
        -1.0
      ],
      "type": "VEC3"
    },
    {
      "bufferView": 0,
      "byteOffset": 1625784,
      "componentType": 5125,
      "count": 39477,
      "type": "SCALAR"
    },
    {
      "bufferView": 1,
      "byteOffset": 4199016,
      "componentType": 5126,
      "count": 1012,
      "max": [
        147.48971557617188,
        8.228801727294922,
        86.32902526855469
      ],
      "min": [
        -25.816743850708008,
        -162.15185546875,
        74.58184051513672
      ],
      "type": "VEC3"
    },
    {
      "bufferView": 1,
      "byteOffset": 4211160,
      "componentType": 5126,
      "count": 1012,
      "max": [
        0.9999974966049194,
        0.9659218788146973,
        0.9860163927078247
      ],
      "min": [
        -0.999997615814209,
        -0.965924084186554,
        -0.9513370990753174
      ],
      "type": "VEC3"
    },
    {
      "bufferView": 0,
      "byteOffset": 1783692,
      "componentType": 5125,
      "count": 1866,
      "type": "SCALAR"
    },
    {
      "bufferView": 1,
      "byteOffset": 4223304,
      "componentType": 5126,
      "count": 320,
      "max": [
        139.10670471191406,
        -23.333513259887695,
        135.6085662841797
      ],
      "min": [
        -17.285791397094727,
        -302.72259521484375,
        91.462158203125
      ],
      "type": "VEC3"
    },
    {
      "bufferView": 1,
      "byteOffset": 4227144,
      "componentType": 5126,
      "count": 320,
      "max": [
        0.9630216956138611,
        0.4319402873516083,
        0.9650872945785522
      ],
      "min": [
        -0.9630221724510193,
        -0.5143200755119324,
        0.26942169666290283
      ],
      "type": "VEC3"
    },
    {
      "bufferView": 0,
      "byteOffset": 1791156,
      "componentType": 5125,
      "count": 1368,
      "type": "SCALAR"
    },
    {
      "bufferView": 1,
      "byteOffset": 4230984,
      "componentType": 5126,
      "count": 11129,
      "max": [
        138.71713256835938,
        -12.127201080322266,
        136.16746520996094
      ],
      "min": [
        -17.03977394104004,
        -311.07220458984375,
        31.190431594848633
      ],
      "type": "VEC3"
    },
    {
      "bufferView": 1,
      "byteOffset": 4364532,
      "componentType": 5126,
      "count": 11129,
      "max": [
        1.0,
        1.0,
        1.0
      ],
      "min": [
        -1.0,
        -1.0,
        -1.0
      ],
      "type": "VEC3"
    },
    {
      "bufferView": 0,
      "byteOffset": 1796628,
      "componentType": 5125,
      "count": 24231,
      "type": "SCALAR"
    },
    {
      "bufferView": 1,
      "byteOffset": 4498080,
      "componentType": 5126,
      "count": 320,
      "max": [
        139.10670471191406,
        -23.333513259887695,
        135.6085662841797
      ],
      "min": [
        -17.285791397094727,
        -302.72259521484375,
        91.462158203125
      ],
      "type": "VEC3"
    },
    {
      "bufferView": 1,
      "byteOffset": 4501920,
      "componentType": 5126,
      "count": 320,
      "max": [
        0.9630221724510193,
        0.5143200755119324,
        -0.26942169666290283
      ],
      "min": [
        -0.9630216956138611,
        -0.4319402873516083,
        -0.9650872945785522
      ],
      "type": "VEC3"
    },
    {
      "bufferView": 0,
      "byteOffset": 1893552,
      "componentType": 5125,
      "count": 1368,
      "type": "SCALAR"
    },
    {
      "bufferView": 1,
      "byteOffset": 4505760,
      "componentType": 5126,
      "count": 162,
      "max": [
        158.5462646484375,
        -231.68942260742188,
        127.78302001953125
      ],
      "min": [
        -36.87331008911133,
        -266.3956604003906,
        95.956298828125
      ],
      "type": "VEC3"
    },
    {
      "bufferView": 1,
      "byteOffset": 4507704,
      "componentType": 5126,
      "count": 162,
      "max": [
        0.9762694835662842,
        0.980824887752533,
        0.9952026009559631
      ],
      "min": [
        -0.9762728214263916,
        -0.21864919364452362,
        -0.995199978351593
      ],
      "type": "VEC3"
    },
    {
      "bufferView": 0,
      "byteOffset": 1899024,
      "componentType": 5125,
      "count": 339,
      "type": "SCALAR"
    },
    {
      "bufferView": 1,
      "byteOffset": 4509648,
      "componentType": 5126,
      "count": 953,
      "max": [
        131.3808135986328,
        8.8372802734375,
        107.76112365722656
      ],
      "min": [
        -9.772256851196289,
        -16.682140350341797,
        98.45944213867188
      ],
      "type": "VEC3"
    },
    {
      "bufferView": 1,
      "byteOffset": 4521084,
      "componentType": 5126,
      "count": 953,
      "max": [
        0.9769265055656433,
        0.9994747042655945,
        0.9979692101478577
      ],
      "min": [
        -0.9769259095191956,
        -0.8520212173461914,
        -0.9979692101478577
      ],
      "type": "VEC3"
    },
    {
      "bufferView": 0,
      "byteOffset": 1900380,
      "componentType": 5125,
      "count": 2046,
      "type": "SCALAR"
    },
    {
      "bufferView": 1,
      "byteOffset": 4532520,
      "componentType": 5126,
      "count": 18279,
      "max": [
        146.1409454345703,
        11.891685485839844,
        138.31491088867188
      ],
      "min": [
        -24.6782283782959,
        -442.6380310058594,
        23.989887237548828
      ],
      "type": "VEC3"
    },
    {
      "bufferView": 1,
      "byteOffset": 4751868,
      "componentType": 5126,
      "count": 18279,
      "max": [
        1.0,
        1.0,
        1.0
      ],
      "min": [
        -1.0,
        -0.9999848008155823,
        -1.0
      ],
      "type": "VEC3"
    },
    {
      "bufferView": 0,
      "byteOffset": 1908564,
      "componentType": 5125,
      "count": 46452,
      "type": "SCALAR"
    },
    {
      "bufferView": 1,
      "byteOffset": 4971216,
      "componentType": 5126,
      "count": 336,
      "max": [
        62.465030670166016,
        2.985095977783203,
        100.33257293701172
      ],
      "min": [
        -17.468286514282227,
        -273.5655212402344,
        64.83506774902344
      ],
      "type": "VEC3"
    },
    {
      "bufferView": 1,
      "byteOffset": 4975248,
      "componentType": 5126,
      "count": 336,
      "max": [
        0.9686995148658752,
        0.999993622303009,
        0.9403094053268433
      ],
      "min": [
        -0.9686986804008484,
        -0.9999927878379822,
        -0.9403104186058044
      ],
      "type": "VEC3"
    },
    {
      "bufferView": 0,
      "byteOffset": 2094372,
      "componentType": 5125,
      "count": 594,
      "type": "SCALAR"
    },
    {
      "bufferView": 1,
      "byteOffset": 4979280,
      "componentType": 5126,
      "count": 1073,
      "max": [
        139.82339477539063,
        9.40121078491211,
        87.58541870117188
      ],
      "min": [
        -18.14615249633789,
        -436.941162109375,
        29.423717498779297
      ],
      "type": "VEC3"
    },
    {
      "bufferView": 1,
      "byteOffset": 4992156,
      "componentType": 5126,
      "count": 1073,
      "max": [
        1.0,
        0.9919359087944031,
        0.9984071254730225
      ],
      "min": [
        -1.0,
        -0.9997832179069519,
        -0.9984071254730225
      ],
      "type": "VEC3"
    },
    {
      "bufferView": 0,
      "byteOffset": 2096748,
      "componentType": 5125,
      "count": 2055,
      "type": "SCALAR"
    },
    {
      "bufferView": 1,
      "byteOffset": 5005032,
      "componentType": 5126,
      "count": 58,
      "max": [
        98.42108154296875,
        -108.31433868408203,
        136.55616760253906
      ],
      "min": [
        23.187450408935547,
        -111.29096984863281,
        133.51007080078125
      ],
      "type": "VEC3"
    },
    {
      "bufferView": 1,
      "byteOffset": 5005728,
      "componentType": 5126,
      "count": 58,
      "max": [
        0.9978702068328857,
        0.04781800135970116,
        0.6180374026298523
      ],
      "min": [
        -0.9978700876235962,
        -0.8654993772506714,
        -0.8136041760444641
      ],
      "type": "VEC3"
    },
    {
      "bufferView": 0,
      "byteOffset": 2104968,
      "componentType": 5125,
      "count": 84,
      "type": "SCALAR"
    },
    {
      "bufferView": 1,
      "byteOffset": 5006424,
      "componentType": 5126,
      "count": 5589,
      "max": [
        140.0970916748047,
        12.932254791259766,
        87.58541870117188
      ],
      "min": [
        -18.419849395751953,
        -6.867800235748291,
        63.694725036621094
      ],
      "type": "VEC3"
    },
    {
      "bufferView": 1,
      "byteOffset": 5073492,
      "componentType": 5126,
      "count": 5589,
      "max": [
        0.9999818205833435,
        0.9999848008155823,
        1.0
      ],
      "min": [
        -0.9999818205833435,
        -0.9989529252052307,
        -1.0
      ],
      "type": "VEC3"
    },
    {
      "bufferView": 0,
      "byteOffset": 2105304,
      "componentType": 5125,
      "count": 13539,
      "type": "SCALAR"
    },
    {
      "bufferView": 1,
      "byteOffset": 5140560,
      "componentType": 5126,
      "count": 302,
      "max": [
        140.0970916748047,
        10.938411712646484,
        82.50496673583984
      ],
      "min": [
        -18.419849395751953,
        -436.941162109375,
        29.652795791625977
      ],
      "type": "VEC3"
    },
    {
      "bufferView": 1,
      "byteOffset": 5144184,
      "componentType": 5126,
      "count": 302,
      "max": [
        0.9970386028289795,
        0.9857457876205444,
        0.5343790054321289
      ],
      "min": [
        -0.9970386028289795,
        -0.9997832179069519,
        -0.9990214109420776
      ],
      "type": "VEC3"
    },
    {
      "bufferView": 0,
      "byteOffset": 2159460,
      "componentType": 5125,
      "count": 900,
      "type": "SCALAR"
    },
    {
      "bufferView": 1,
      "byteOffset": 5147808,
      "componentType": 5126,
      "count": 4,
      "max": [
        135.30209350585938,
        5.326610088348389,
        69.37976837158203
      ],
      "min": [
        -13.624858856201172,
        3.780090093612671,
        69.36983489990234
      ],
      "type": "VEC3"
    },
    {
      "bufferView": 0,
      "byteOffset": 2163060,
      "componentType": 5125,
      "count": 4,
      "type": "SCALAR"
    },
    {
      "bufferView": 1,
      "byteOffset": 5147856,
      "componentType": 5126,
      "count": 64,
      "max": [
        127.08197784423828,
        11.247020721435547,
        82.50496673583984
      ],
      "min": [
        -5.404739856719971,
        4.642940044403076,
        71.6258773803711
      ],
      "type": "VEC3"
    },
    {
      "bufferView": 1,
      "byteOffset": 5148624,
      "componentType": 5126,
      "count": 64,
      "max": [
        0.1905670315027237,
        0.9858195781707764,
        0.5349553823471069
      ],
      "min": [
        -0.1905670315027237,
        0.8388476967811584,
        -0.408058762550354
      ],
      "type": "VEC3"
    },
    {
      "bufferView": 0,
      "byteOffset": 2163076,
      "componentType": 5125,
      "count": 156,
      "type": "SCALAR"
    },
    {
      "bufferView": 1,
      "byteOffset": 5149392,
      "componentType": 5126,
      "count": 18,
      "max": [
        110.97502136230469,
        10.573820114135742,
        81.7552261352539
      ],
      "min": [
        10.70221996307373,
        6.8294501304626465,
        72.4983901977539
      ],
      "type": "VEC3"
    },
    {
      "bufferView": 1,
      "byteOffset": 5149608,
      "componentType": 5126,
      "count": 18,
      "max": [
        0.07737088948488235,
        0.9689307808876038,
        0.5349553823471069
      ],
      "min": [
        -0.07737088948488235,
        0.8422685265541077,
        0.24081780016422272
      ],
      "type": "VEC3"
    },
    {
      "bufferView": 0,
      "byteOffset": 2163700,
      "componentType": 5125,
      "count": 42,
      "type": "SCALAR"
    },
    {
      "bufferView": 1,
      "byteOffset": 5149824,
      "componentType": 5126,
      "count": 100,
      "max": [
        140.0970916748047,
        8.303009986877441,
        82.50496673583984
      ],
      "min": [
        -18.419849395751953,
        -5.5145440101623535,
        69.57292175292969
      ],
      "type": "VEC3"
    },
    {
      "bufferView": 1,
      "byteOffset": 5151024,
      "componentType": 5126,
      "count": 100,
      "max": [
        0.9582136273384094,
        0.9650874137878418,
        0.5178346037864685
      ],
      "min": [
        -0.9582136273384094,
        -0.924285888671875,
        -0.9990211129188538
      ],
      "type": "VEC3"
    },
    {
      "bufferView": 0,
      "byteOffset": 2163868,
      "componentType": 5125,
      "count": 252,
      "type": "SCALAR"
    },
    {
      "bufferView": 1,
      "byteOffset": 5152224,
      "componentType": 5126,
      "count": 18,
      "max": [
        111.03418731689453,
        10.573820114135742,
        82.47838592529297
      ],
      "min": [
        10.643050193786621,
        6.374889850616455,
        71.63235473632813
      ],
      "type": "VEC3"
    },
    {
      "bufferView": 1,
      "byteOffset": 5152440,
      "componentType": 5126,
      "count": 18,
      "max": [
        0.08713401108980179,
        0.9858195781707764,
        0.5349553823471069
      ],
      "min": [
        -0.08713401108980179,
        0.8422685265541077,
        -0.3964681923389435
      ],
      "type": "VEC3"
    },
    {
      "bufferView": 0,
      "byteOffset": 2164876,
      "componentType": 5125,
      "count": 30,
      "type": "SCALAR"
    },
    {
      "bufferView": 1,
      "byteOffset": 5152656,
      "componentType": 5126,
      "count": 16,
      "max": [
        81.5152359008789,
        11.891685485839844,
        77.97795867919922
      ],
      "min": [
        40.16196060180664,
        7.915527820587158,
        71.97220611572266
      ],
      "type": "VEC3"
    },
    {
      "bufferView": 1,
      "byteOffset": 5152848,
      "componentType": 5126,
      "count": 16,
      "max": [
        0.999927282333374,
        -0.00320477900095284,
        -0.005574752576649189
      ],
      "min": [
        -0.999927282333374,
        -0.013967141509056091,
        -0.02612335979938507
      ],
      "type": "VEC3"
    },
    {
      "bufferView": 0,
      "byteOffset": 2164996,
      "componentType": 5125,
      "count": 36,
      "type": "SCALAR"
    },
    {
      "bufferView": 1,
      "byteOffset": 5153040,
      "componentType": 5126,
      "count": 88,
      "max": [
        115.34192657470703,
        -434.66351318359375,
        37.134857177734375
      ],
      "min": [
        6.368551731109619,
        -437.3188171386719,
        29.652746200561523
      ],
      "type": "VEC3"
    },
    {
      "bufferView": 1,
      "byteOffset": 5154096,
      "componentType": 5126,
      "count": 88,
      "max": [
        0.8433917164802551,
        -0.15671806037425995,
        0.553573489189148
      ],
      "min": [
        -0.8433887958526611,
        -0.9704379439353943,
        -0.969226062297821
      ],
      "type": "VEC3"
    },
    {
      "bufferView": 0,
      "byteOffset": 2165140,
      "componentType": 5125,
      "count": 132,
      "type": "SCALAR"
    },
    {
      "bufferView": 1,
      "byteOffset": 5155152,
      "componentType": 5126,
      "count": 6,
      "max": [
        100.15635681152344,
        -435.12567138671875,
        36.7010612487793
      ],
      "min": [
        21.554121017456055,
        -436.7924499511719,
        30.025022506713867
      ],
      "type": "VEC3"
    },
    {
      "bufferView": 1,
      "byteOffset": 5155224,
      "componentType": 5126,
      "count": 6,
      "max": [
        0.1583569049835205,
        0.978753387928009,
        0.33488836884498596
      ],
      "min": [
        -0.15835680067539215,
        0.9288557171821594,
        0.1318349391222
      ],
      "type": "VEC3"
    },
    {
      "bufferView": 0,
      "byteOffset": 2165668,
      "componentType": 5125,
      "count": 6,
      "type": "SCALAR"
    },
    {
      "bufferView": 1,
      "byteOffset": 5155296,
      "componentType": 5126,
      "count": 498,
      "max": [
        140.74911499023438,
        -397.99859619140625,
        72.02738952636719
      ],
      "min": [
        -19.490217208862305,
        -437.9730529785156,
        46.493797302246094
      ],
      "type": "VEC3"
    },
    {
      "bufferView": 1,
      "byteOffset": 5161272,
      "componentType": 5126,
      "count": 498,
      "max": [
        0.9885278940200806,
        0.9806202054023743,
        1.0
      ],
      "min": [
        -0.9885278940200806,
        -0.9838907122612,
        -1.0
      ],
      "type": "VEC3"
    },
    {
      "bufferView": 0,
      "byteOffset": 2165692,
      "componentType": 5125,
      "count": 972,
      "type": "SCALAR"
    },
    {
      "bufferView": 1,
      "byteOffset": 5167248,
      "componentType": 5126,
      "count": 181,
      "max": [
        140.7537841796875,
        -424.8695983886719,
        51.90305709838867
      ],
      "min": [
        -19.291128158569336,
        -438.48828125,
        46.52780532836914
      ],
      "type": "VEC3"
    },
    {
      "bufferView": 1,
      "byteOffset": 5169420,
      "componentType": 5126,
      "count": 181,
      "max": [
        0.9989880919456482,
        0.6177399754524231,
        0.8833436369895935
      ],
      "min": [
        -0.9989895224571228,
        -0.9798609018325806,
        -0.8809586763381958
      ],
      "type": "VEC3"
    },
    {
      "bufferView": 0,
      "byteOffset": 2169580,
      "componentType": 5125,
      "count": 408,
      "type": "SCALAR"
    },
    {
      "bufferView": 1,
      "byteOffset": 5171592,
      "componentType": 5126,
      "count": 3810,
      "max": [
        140.0951385498047,
        -395.39080810546875,
        74.02751922607422
      ],
      "min": [
        -18.83624839782715,
        -439.3802490234375,
        31.653467178344727
      ],
      "type": "VEC3"
    },
    {
      "bufferView": 1,
      "byteOffset": 5217312,
      "componentType": 5126,
      "count": 3810,
      "max": [
        1.0,
        0.9962726831436157,
        1.0
      ],
      "min": [
        -1.0,
        -1.0,
        -1.0
      ],
      "type": "VEC3"
    },
    {
      "bufferView": 0,
      "byteOffset": 2171212,
      "componentType": 5125,
      "count": 8307,
      "type": "SCALAR"
    },
    {
      "bufferView": 1,
      "byteOffset": 5263032,
      "componentType": 5126,
      "count": 152,
      "max": [
        87.00035095214844,
        -425.4598083496094,
        71.02523040771484
      ],
      "min": [
        34.46236801147461,
        -432.940185546875,
        60.8437385559082
      ],
      "type": "VEC3"
    },
    {
      "bufferView": 1,
      "byteOffset": 5264856,
      "componentType": 5126,
      "count": 152,
      "max": [
        0.9952390193939209,
        0.9104338884353638,
        1.0
      ],
      "min": [
        -0.9952390193939209,
        -0.9104338884353638,
        -1.0
      ],
      "type": "VEC3"
    },
    {
      "bufferView": 0,
      "byteOffset": 2204440,
      "componentType": 5125,
      "count": 396,
      "type": "SCALAR"
    },
    {
      "bufferView": 1,
      "byteOffset": 5266680,
      "componentType": 5126,
      "count": 641,
      "max": [
        96.88854217529297,
        -423.5057067871094,
        70.1842041015625
      ],
      "min": [
        24.78883934020996,
        -430.3522033691406,
        61.37651062011719
      ],
      "type": "VEC3"
    },
    {
      "bufferView": 1,
      "byteOffset": 5274372,
      "componentType": 5126,
      "count": 641,
      "max": [
        0.9659402966499329,
        0.998638927936554,
        0.9976382851600647
      ],
      "min": [
        -0.9659202098846436,
        -0.9989244937896729,
        -0.9976375102996826
      ],
      "type": "VEC3"
    },
    {
      "bufferView": 0,
      "byteOffset": 2206024,
      "componentType": 5125,
      "count": 1221,
      "type": "SCALAR"
    },
    {
      "bufferView": 1,
      "byteOffset": 5282064,
      "componentType": 5126,
      "count": 604,
      "max": [
        138.45831298828125,
        -403.9079895019531,
        71.9273681640625
      ],
      "min": [
        -16.78092384338379,
        -431.55389404296875,
        60.282188415527344
      ],
      "type": "VEC3"
    },
    {
      "bufferView": 1,
      "byteOffset": 5289312,
      "componentType": 5126,
      "count": 604,
      "max": [
        0.9940146803855896,
        0.76944899559021,
        0.8114153742790222
      ],
      "min": [
        -0.9939941167831421,
        -0.9893879294395447,
        -0.625170886516571
      ],
      "type": "VEC3"
    },
    {
      "bufferView": 0,
      "byteOffset": 2210908,
      "componentType": 5125,
      "count": 1836,
      "type": "SCALAR"
    },
    {
      "bufferView": 1,
      "byteOffset": 5296560,
      "componentType": 5126,
      "count": 1420,
      "max": [
        79.27455139160156,
        9.403878211975098,
        81.49876403808594
      ],
      "min": [
        42.2954216003418,
        -441.08935546875,
        25.39636993408203
      ],
      "type": "VEC3"
    },
    {
      "bufferView": 0,
      "byteOffset": 2218252,
      "componentType": 5125,
      "count": 3464,
      "type": "SCALAR"
    },
    {
      "bufferView": 1,
      "byteOffset": 5313600,
      "componentType": 5126,
      "count": 4768,
      "max": [
        79.27455139160156,
        9.403878211975098,
        81.49876403808594
      ],
      "min": [
        42.2954216003418,
        -441.08935546875,
        25.39636993408203
      ],
      "type": "VEC3"
    },
    {
      "bufferView": 1,
      "byteOffset": 5370816,
      "componentType": 5126,
      "count": 4768,
      "max": [
        0.9994411468505859,
        0.9854078888893127,
        0.9849026203155518
      ],
      "min": [
        -0.9994411468505859,
        -0.9854078888893127,
        -0.9849026203155518
      ],
      "type": "VEC3"
    },
    {
      "bufferView": 0,
      "byteOffset": 2232108,
      "componentType": 5125,
      "count": 15036,
      "type": "SCALAR"
    },
    {
      "bufferView": 1,
      "byteOffset": 5428032,
      "componentType": 5126,
      "count": 900,
      "max": [
        76.8284912109375,
        8.728726387023926,
        80.28563690185547
      ],
      "min": [
        44.741477966308594,
        -440.6043701171875,
        28.08837890625
      ],
      "type": "VEC3"
    },
    {
      "bufferView": 1,
      "byteOffset": 5438832,
      "componentType": 5126,
      "count": 900,
      "max": [
        1.0622189378082339e-17,
        0.9854078888893127,
        0.17020945250988007
      ],
      "min": [
        -2.061914304051014e-15,
        -0.9731788635253906,
        -0.2300497591495514
      ],
      "type": "VEC3"
    },
    {
      "bufferView": 0,
      "byteOffset": 2292252,
      "componentType": 5125,
      "count": 2604,
      "type": "SCALAR"
    },
    {
      "bufferView": 1,
      "byteOffset": 5449632,
      "componentType": 5126,
      "count": 244,
      "max": [
        138.45831298828125,
        -404.3049011230469,
        71.9273681640625
      ],
      "min": [
        -16.78092384338379,
        -432.95098876953125,
        60.282188415527344
      ],
      "type": "VEC3"
    },
    {
      "bufferView": 1,
      "byteOffset": 5452560,
      "componentType": 5126,
      "count": 244,
      "max": [
        0.9940146803855896,
        0.76944899559021,
        0.8114153742790222
      ],
      "min": [
        -0.9939941167831421,
        -0.9893847703933716,
        -0.625170886516571
      ],
      "type": "VEC3"
    },
    {
      "bufferView": 0,
      "byteOffset": 2302668,
      "componentType": 5125,
      "count": 756,
      "type": "SCALAR"
    },
    {
      "bufferView": 1,
      "byteOffset": 5455488,
      "componentType": 5126,
      "count": 80,
      "max": [
        66.92500305175781,
        -429.994873046875,
        69.11016845703125
      ],
      "min": [
        54.212100982666016,
        -431.3953857421875,
        66.09839630126953
      ],
      "type": "VEC3"
    },
    {
      "bufferView": 1,
      "byteOffset": 5456448,
      "componentType": 5126,
      "count": 80,
      "max": [
        0.010132829658687115,
        -0.9084147214889526,
        0.4180373549461365
      ],
      "min": [
        -0.010119209997355938,
        -0.9102355241775513,
        0.41403070092201233
      ],
      "type": "VEC3"
    },
    {
      "bufferView": 0,
      "byteOffset": 2305692,
      "componentType": 5125,
      "count": 258,
      "type": "SCALAR"
    },
    {
      "bufferView": 1,
      "byteOffset": 5457408,
      "componentType": 5126,
      "count": 32,
      "max": [
        127.17374420166016,
        -421.9259033203125,
        71.64290618896484
      ],
      "min": [
        -5.914846420288086,
        -431.436279296875,
        60.375118255615234
      ],
      "type": "VEC3"
    },
    {
      "bufferView": 1,
      "byteOffset": 5457792,
      "componentType": 5126,
      "count": 32,
      "max": [
        0.850541889667511,
        0.8065311908721924,
        0.6157652139663696
      ],
      "min": [
        -0.8505961894989014,
        0.4857847988605499,
        -0.21022599935531616
      ],
      "type": "VEC3"
    },
    {
      "bufferView": 0,
      "byteOffset": 2306724,
      "componentType": 5125,
      "count": 72,
      "type": "SCALAR"
    },
    {
      "bufferView": 1,
      "byteOffset": 5458176,
      "componentType": 5126,
      "count": 192,
      "max": [
        97.71483612060547,
        -424.8243103027344,
        71.04830169677734
      ],
      "min": [
        23.9625301361084,
        -431.81280517578125,
        60.58749771118164
      ],
      "type": "VEC3"
    },
    {
      "bufferView": 1,
      "byteOffset": 5460480,
      "componentType": 5126,
      "count": 192,
      "max": [
        0.9165922999382019,
        -0.17173199355602264,
        0.9783447980880737
      ],
      "min": [
        -0.9166103005409241,
        -0.876317024230957,
        -0.7960485816001892
      ],
      "type": "VEC3"
    },
    {
      "bufferView": 0,
      "byteOffset": 2307012,
      "componentType": 5125,
      "count": 474,
      "type": "SCALAR"
    },
    {
      "bufferView": 1,
      "byteOffset": 5462784,
      "componentType": 5126,
      "count": 1451,
      "max": [
        139.6644744873047,
        -398.0600891113281,
        72.25131225585938
      ],
      "min": [
        -17.987092971801758,
        -431.45458984375,
        59.97562789916992
      ],
      "type": "VEC3"
    },
    {
      "bufferView": 1,
      "byteOffset": 5480196,
      "componentType": 5126,
      "count": 1451,
      "max": [
        1.0,
        0.993642270565033,
        1.0
      ],
      "min": [
        -1.0,
        -0.9974440932273865,
        -1.0
      ],
      "type": "VEC3"
    },
    {
      "bufferView": 0,
      "byteOffset": 2308908,
      "componentType": 5125,
      "count": 3348,
      "type": "SCALAR"
    },
    {
      "bufferView": 1,
      "byteOffset": 5497608,
      "componentType": 5126,
      "count": 1746,
      "max": [
        116.93081665039063,
        10.390509605407715,
        41.27513122558594
      ],
      "min": [
        101.31082916259766,
        -36.62202835083008,
        24.11067771911621
      ],
      "type": "VEC3"
    },
    {
      "bufferView": 1,
      "byteOffset": 5518560,
      "componentType": 5126,
      "count": 1746,
      "max": [
        1.0,
        0.9995812177658081,
        0.996264636516571
      ],
      "min": [
        -1.0,
        -0.9977993965148926,
        -0.9982531070709229
      ],
      "type": "VEC3"
    },
    {
      "bufferView": 0,
      "byteOffset": 2322300,
      "componentType": 5125,
      "count": 6636,
      "type": "SCALAR"
    },
    {
      "bufferView": 1,
      "byteOffset": 5539512,
      "componentType": 5126,
      "count": 28,
      "max": [
        111.39993286132813,
        -229.19076538085938,
        133.804443359375
      ],
      "min": [
        10.277429580688477,
        -235.3338165283203,
        131.71566772460938
      ],
      "type": "VEC3"
    },
    {
      "bufferView": 1,
      "byteOffset": 5539848,
      "componentType": 5126,
      "count": 28,
      "max": [
        0.1172821968793869,
        -0.21440452337265015,
        -0.5606602430343628
      ],
      "min": [
        -0.11728399991989136,
        -0.8259773254394531,
        -0.9759021997451782
      ],
      "type": "VEC3"
    },
    {
      "bufferView": 0,
      "byteOffset": 2348844,
      "componentType": 5125,
      "count": 72,
      "type": "SCALAR"
    },
    {
      "bufferView": 1,
      "byteOffset": 5540184,
      "componentType": 5126,
      "count": 10,
      "max": [
        44.688079833984375,
        -272.90618896484375,
        98.1838607788086
      ],
      "min": [
        6.847028732299805,
        -274.32666015625,
        84.98020935058594
      ],
      "type": "VEC3"
    },
    {
      "bufferView": 1,
      "byteOffset": 5540304,
      "componentType": 5126,
      "count": 10,
      "max": [
        -0.008318481966853142,
        0.9969950318336487,
        0.07986386120319366
      ],
      "min": [
        -0.016584839671850204,
        0.9967178106307983,
        0.07657250761985779
      ],
      "type": "VEC3"
    },
    {
      "bufferView": 0,
      "byteOffset": 2349132,
      "componentType": 5125,
      "count": 24,
      "type": "SCALAR"
    },
    {
      "bufferView": 1,
      "byteOffset": 5540424,
      "componentType": 5126,
      "count": 84,
      "max": [
        74.6491470336914,
        -268.3712463378906,
        79.78902435302734
      ],
      "min": [
        49.24673843383789,
        -270.3482971191406,
        74.4045181274414
      ],
      "type": "VEC3"
    },
    {
      "bufferView": 1,
      "byteOffset": 5541432,
      "componentType": 5126,
      "count": 84,
      "max": [
        0.9971129894256592,
        0.9877334237098694,
        0.9999997019767761
      ],
      "min": [
        -0.9950485229492188,
        -1.0328550388294389e-06,
        -0.9999932050704956
      ],
      "type": "VEC3"
    },
    {
      "bufferView": 0,
      "byteOffset": 2349228,
      "componentType": 5125,
      "count": 102,
      "type": "SCALAR"
    },
    {
      "bufferView": 1,
      "byteOffset": 5542440,
      "componentType": 5126,
      "count": 14120,
      "max": [
        133.38308715820313,
        -90.54739379882813,
        121.33057403564453
      ],
      "min": [
        -11.705713272094727,
        -261.984130859375,
        28.125089645385742
      ],
      "type": "VEC3"
    },
    {
      "bufferView": 1,
      "byteOffset": 5711880,
      "componentType": 5126,
      "count": 14120,
      "max": [
        1.0,
        0.9999957084655762,
        0.9994339942932129
      ],
      "min": [
        -1.0,
        -0.9999957084655762,
        -0.9994339942932129
      ],
      "type": "VEC3"
    },
    {
      "bufferView": 0,
      "byteOffset": 2349636,
      "componentType": 5125,
      "count": 33048,
      "type": "SCALAR"
    },
    {
      "bufferView": 1,
      "byteOffset": 5881320,
      "componentType": 5126,
      "count": 195,
      "max": [
        51.35301971435547,
        -270.9599609375,
        108.85250854492188
      ],
      "min": [
        45.33491897583008,
        -272.6081848144531,
        102.8070297241211
      ],
      "type": "VEC3"
    },
    {
      "bufferView": 1,
      "byteOffset": 5883660,
      "componentType": 5126,
      "count": 195,
      "max": [
        0.9828677177429199,
        0.9776473045349121,
        0.9925413131713867
      ],
      "min": [
        -0.9828655123710632,
        -0.21002380549907684,
        -0.9925386905670166
      ],
      "type": "VEC3"
    },
    {
      "bufferView": 0,
      "byteOffset": 2481828,
      "componentType": 5125,
      "count": 450,
      "type": "SCALAR"
    },
    {
      "bufferView": 1,
      "byteOffset": 5886000,
      "componentType": 5126,
      "count": 648,
      "max": [
        52.82506561279297,
        -270.5875244140625,
        109.29058837890625
      ],
      "min": [
        44.87910079956055,
        -279.1071472167969,
        99.0758056640625
      ],
      "type": "VEC3"
    },
    {
      "bufferView": 1,
      "byteOffset": 5893776,
      "componentType": 5126,
      "count": 648,
      "max": [
        0.9828690886497498,
        0.9776322245597839,
        0.9921309947967529
      ],
      "min": [
        -0.9828664064407349,
        -0.9776288270950317,
        -0.9921302795410156
      ],
      "type": "VEC3"
    },
    {
      "bufferView": 0,
      "byteOffset": 2483628,
      "componentType": 5125,
      "count": 1482,
      "type": "SCALAR"
    },
    {
      "bufferView": 1,
      "byteOffset": 5901552,
      "componentType": 5126,
      "count": 61,
      "max": [
        50.45914077758789,
        -277.8509826660156,
        105.6115493774414
      ],
      "min": [
        49.19585037231445,
        -285.12738037109375,
        98.59072875976563
      ],
      "type": "VEC3"
    },
    {
      "bufferView": 1,
      "byteOffset": 5902284,
      "componentType": 5126,
      "count": 61,
      "max": [
        0.9984701871871948,
        0.8300073742866516,
        0.9476099014282227
      ],
      "min": [
        -0.8279178738594055,
        -0.8664360046386719,
        -0.9476091861724854
      ],
      "type": "VEC3"
    },
    {
      "bufferView": 0,
      "byteOffset": 2489556,
      "componentType": 5125,
      "count": 120,
      "type": "SCALAR"
    },
    {
      "bufferView": 1,
      "byteOffset": 5903016,
      "componentType": 5126,
      "count": 29,
      "max": [
        51.58851623535156,
        -268.431640625,
        109.16459655761719
      ],
      "min": [
        3.7277395725250244,
        -272.277587890625,
        85.5202865600586
      ],
      "type": "VEC3"
    },
    {
      "bufferView": 1,
      "byteOffset": 5903364,
      "componentType": 5126,
      "count": 29,
      "max": [
        -0.008318521082401276,
        0.9969950914382935,
        0.10740579664707184
      ],
      "min": [
        -0.18085400760173798,
        0.9776278138160706,
        0.0765724927186966
      ],
      "type": "VEC3"
    },
    {
      "bufferView": 0,
      "byteOffset": 2490036,
      "componentType": 5125,
      "count": 48,
      "type": "SCALAR"
    },
    {
      "bufferView": 1,
      "byteOffset": 5903712,
      "componentType": 5126,
      "count": 560,
      "max": [
        139.47824096679688,
        -95.1624984741211,
        77.93423461914063
      ],
      "min": [
        -17.80095100402832,
        -306.02032470703125,
        26.122880935668945
      ],
      "type": "VEC3"
    },
    {
      "bufferView": 1,
      "byteOffset": 5910432,
      "componentType": 5126,
      "count": 560,
      "max": [
        0.997803807258606,
        0.9999330043792725,
        1.0
      ],
      "min": [
        -0.9976884126663208,
        -0.9997408986091614,
        -0.20448580384254456
      ],
      "type": "VEC3"
    },
    {
      "bufferView": 0,
      "byteOffset": 2490228,
      "componentType": 5125,
      "count": 1431,
      "type": "SCALAR"
    },
    {
      "bufferView": 1,
      "byteOffset": 5917152,
      "componentType": 5126,
      "count": 3476,
      "max": [
        131.8247528076172,
        -89.4241943359375,
        134.54293823242188
      ],
      "min": [
        -10.147417068481445,
        -279.43829345703125,
        26.053110122680664
      ],
      "type": "VEC3"
    },
    {
      "bufferView": 1,
      "byteOffset": 5958864,
      "componentType": 5126,
      "count": 3476,
      "max": [
        1.0,
        1.0,
        1.0
      ],
      "min": [
        -1.0,
        -1.0,
        -1.0
      ],
      "type": "VEC3"
    },
    {
      "bufferView": 0,
      "byteOffset": 2495952,
      "componentType": 5125,
      "count": 6168,
      "type": "SCALAR"
    },
    {
      "bufferView": 1,
      "byteOffset": 6000576,
      "componentType": 5126,
      "count": 2671,
      "max": [
        43.95817947387695,
        -238.59010314941406,
        104.0252914428711
      ],
      "min": [
        4.119199752807617,
        -252.81246948242188,
        65.93115234375
      ],
      "type": "VEC3"
    },
    {
      "bufferView": 1,
      "byteOffset": 6032628,
      "componentType": 5126,
      "count": 2671,
      "max": [
        1.0,
        0.9937340021133423,
        0.9937360286712646
      ],
      "min": [
        -1.0,
        -0.9937348961830139,
        -0.9937329292297363
      ],
      "type": "VEC3"
    },
    {
      "bufferView": 0,
      "byteOffset": 2520624,
      "componentType": 5125,
      "count": 6612,
      "type": "SCALAR"
    },
    {
      "bufferView": 1,
      "byteOffset": 6064680,
      "componentType": 5126,
      "count": 3744,
      "max": [
        143.77569580078125,
        -80.50592041015625,
        37.58287048339844
      ],
      "min": [
        -20.595596313476563,
        -355.92950439453125,
        15.044280052185059
      ],
      "type": "VEC3"
    },
    {
      "bufferView": 1,
      "byteOffset": 6109608,
      "componentType": 5126,
      "count": 3744,
      "max": [
        1.0,
        0.9961948394775391,
        0.9961951971054077
      ],
      "min": [
        -1.0,
        -0.9961963295936584,
        -0.9961932301521301
      ],
      "type": "VEC3"
    },
    {
      "bufferView": 0,
      "byteOffset": 2547072,
      "componentType": 5125,
      "count": 10368,
      "type": "SCALAR"
    },
    {
      "bufferView": 1,
      "byteOffset": 6154536,
      "componentType": 5126,
      "count": 36336,
      "max": [
        149.5948944091797,
        -62.13420867919922,
        55.954978942871094
      ],
      "min": [
        -26.414796829223633,
        -374.3021240234375,
        7.202473163604736
      ],
      "type": "VEC3"
    },
    {
      "bufferView": 1,
      "byteOffset": 6590568,
      "componentType": 5126,
      "count": 36336,
      "max": [
        1.0,
        1.0,
        1.0
      ],
      "min": [
        -1.0,
        -1.0,
        -1.0
      ],
      "type": "VEC3"
    },
    {
      "bufferView": 0,
      "byteOffset": 2588544,
      "componentType": 5125,
      "count": 115488,
      "type": "SCALAR"
    },
    {
      "bufferView": 1,
      "byteOffset": 7026600,
      "componentType": 5126,
      "count": 1696,
      "max": [
        149.5006103515625,
        -54.45716857910156,
        63.626861572265625
      ],
      "min": [
        -26.320518493652344,
        -381.97918701171875,
        -0.46939998865127563
      ],
      "type": "VEC3"
    },
    {
      "bufferView": 1,
      "byteOffset": 7046952,
      "componentType": 5126,
      "count": 1696,
      "max": [
        0.994597315788269,
        0.9996597170829773,
        0.999657928943634
      ],
      "min": [
        -0.994597315788269,
        -0.9996597170829773,
        -0.9996578097343445
      ],
      "type": "VEC3"
    },
    {
      "bufferView": 0,
      "byteOffset": 3050496,
      "componentType": 5125,
      "count": 5616,
      "type": "SCALAR"
    },
    {
      "bufferView": 1,
      "byteOffset": 7067304,
      "componentType": 5126,
      "count": 2656,
      "max": [
        140.10403442382813,
        -72.60494995117188,
        45.52574157714844
      ],
      "min": [
        -16.92393684387207,
        -363.86724853515625,
        17.678749084472656
      ],
      "type": "VEC3"
    },
    {
      "bufferView": 1,
      "byteOffset": 7099176,
      "componentType": 5126,
      "count": 2656,
      "max": [
        1.0,
        1.0,
        1.0
      ],
      "min": [
        -1.0,
        -1.0,
        -1.0
      ],
      "type": "VEC3"
    },
    {
      "bufferView": 0,
      "byteOffset": 3072960,
      "componentType": 5125,
      "count": 7200,
      "type": "SCALAR"
    },
    {
      "bufferView": 1,
      "byteOffset": 7131048,
      "componentType": 5126,
      "count": 7012,
      "max": [
        139.1685333251953,
        -90.69213104248047,
        47.13389205932617
      ],
      "min": [
        -15.988439559936523,
        -365.5480651855469,
        29.943632125854492
      ],
      "type": "VEC3"
    },
    {
      "bufferView": 1,
      "byteOffset": 7215192,
      "componentType": 5126,
      "count": 7012,
      "max": [
        1.0,
        0.9998944997787476,
        0.9998680949211121
      ],
      "min": [
        -1.0,
        -0.999225378036499,
        -0.9997305870056152
      ],
      "type": "VEC3"
    },
    {
      "bufferView": 0,
      "byteOffset": 3101760,
      "componentType": 5125,
      "count": 14316,
      "type": "SCALAR"
    },
    {
      "bufferView": 1,
      "byteOffset": 7299336,
      "componentType": 5126,
      "count": 16,
      "max": [
        139.1924285888672,
        -93.75933074951172,
        40.29239273071289
      ],
      "min": [
        -16.0123348236084,
        -360.6784362792969,
        35.404598236083984
      ],
      "type": "VEC3"
    },
    {
      "bufferView": 1,
      "byteOffset": 7299528,
      "componentType": 5126,
      "count": 16,
      "max": [
        0.9999222159385681,
        0.011105690151453018,
        -0.0063169351778924465
      ],
      "min": [
        -0.9999222159385681,
        0.010758819989860058,
        -0.006425639148801565
      ],
      "type": "VEC3"
    },
    {
      "bufferView": 0,
      "byteOffset": 3159024,
      "componentType": 5125,
      "count": 24,
      "type": "SCALAR"
    },
    {
      "bufferView": 1,
      "byteOffset": 7299720,
      "componentType": 5126,
      "count": 16,
      "max": [
        146.52236938476563,
        -151.90313720703125,
        138.03933715820313
      ],
      "min": [
        3.202528238296509,
        -293.4429016113281,
        64.74696350097656
      ],
      "type": "VEC3"
    },
    {
      "bufferView": 0,
      "byteOffset": 3159120,
      "componentType": 5125,
      "count": 18,
      "type": "SCALAR"
    },
    {
      "bufferView": 1,
      "byteOffset": 7299912,
      "componentType": 5126,
      "count": 9,
      "max": [
        140.43408203125,
        -151.51992797851563,
        139.17076110839844
      ],
      "min": [
        113.8035888671875,
        -164.0274658203125,
        91.41465759277344
      ],
      "type": "VEC3"
    },
    {
      "bufferView": 0,
      "byteOffset": 3159192,
      "componentType": 5125,
      "count": 10,
      "type": "SCALAR"
    },
    {
      "bufferView": 1,
      "byteOffset": 7300020,
      "componentType": 5126,
      "count": 9,
      "max": [
        96.26082611083984,
        -406.0509033203125,
        73.90035247802734
      ],
      "min": [
        24.679410934448242,
        -406.16851806640625,
        31.565092086791992
      ],
      "type": "VEC3"
    },
    {
      "bufferView": 1,
      "byteOffset": 7300128,
      "componentType": 5126,
      "count": 9,
      "max": [
        -0.000389463355531916,
        -0.9999963045120239,
        0.0026112908963114023
      ],
      "min": [
        -0.0007869863766245544,
        -0.9999979138374329,
        0.001997102051973343
      ],
      "type": "VEC3"
    },
    {
      "bufferView": 0,
      "byteOffset": 3159232,
      "componentType": 5125,
      "count": 21,
      "type": "SCALAR"
    },
    {
      "bufferView": 1,
      "byteOffset": 7300236,
      "componentType": 5126,
      "count": 2368,
      "max": [
        133.03086853027344,
        -299.8712463378906,
        89.25714111328125
      ],
      "min": [
        -11.353540420532227,
        -406.0688171386719,
        51.55144119262695
      ],
      "type": "VEC3"
    },
    {
      "bufferView": 1,
      "byteOffset": 7328652,
      "componentType": 5126,
      "count": 2368,
      "max": [
        1.0,
        1.0,
        1.0
      ],
      "min": [
        -1.0,
        -1.0,
        -1.0
      ],
      "type": "VEC3"
    },
    {
      "bufferView": 0,
      "byteOffset": 3159316,
      "componentType": 5125,
      "count": 3882,
      "type": "SCALAR"
    },
    {
      "bufferView": 1,
      "byteOffset": 7357068,
      "componentType": 5126,
      "count": 2954,
      "max": [
        128.8331756591797,
        4.055202484130859,
        45.65848922729492
      ],
      "min": [
        -7.155801773071289,
        -406.24530029296875,
        10.34486198425293
      ],
      "type": "VEC3"
    },
    {
      "bufferView": 1,
      "byteOffset": 7392516,
      "componentType": 5126,
      "count": 2954,
      "max": [
        1.0,
        1.0,
        0.9999982118606567
      ],
      "min": [
        -1.0,
        -1.0,
        -0.9999998211860657
      ],
      "type": "VEC3"
    },
    {
      "bufferView": 0,
      "byteOffset": 3174844,
      "componentType": 5125,
      "count": 5709,
      "type": "SCALAR"
    },
    {
      "bufferView": 1,
      "byteOffset": 7427964,
      "componentType": 5126,
      "count": 139,
      "max": [
        128.51309204101563,
        -5.462802886962891,
        103.1395263671875
      ],
      "min": [
        -6.835779190063477,
        -222.5081329345703,
        26.53483009338379
      ],
      "type": "VEC3"
    },
    {
      "bufferView": 0,
      "byteOffset": 3197680,
      "componentType": 5125,
      "count": 204,
      "type": "SCALAR"
    },
    {
      "bufferView": 1,
      "byteOffset": 7429632,
      "componentType": 5126,
      "count": 65533,
      "max": [
        159.86329650878906,
        19.55032730102539,
        142.0098114013672
      ],
      "min": [
        -38.19034957885742,
        -442.6380310058594,
        -0.46939998865127563
      ],
      "type": "VEC3"
    },
    {
      "bufferView": 0,
      "byteOffset": 3198496,
      "componentType": 5125,
      "count": 345290,
      "type": "SCALAR"
    },
    {
      "bufferView": 1,
      "byteOffset": 8216028,
      "componentType": 5126,
      "count": 15258,
      "max": [
        149.5006103515625,
        7.374401569366455,
        134.54293823242188
      ],
      "min": [
        -26.414796829223633,
        -439.7200622558594,
        -0.46939998865127563
      ],
      "type": "VEC3"
    },
    {
      "bufferView": 0,
      "byteOffset": 4579656,
      "componentType": 5125,
      "count": 49658,
      "type": "SCALAR"
    },
    {
      "bufferView": 1,
      "byteOffset": 8399124,
      "componentType": 5126,
      "count": 1211,
      "max": [
        137.06576538085938,
        12.932254791259766,
        82.6896743774414
      ],
      "min": [
        -25.004602432250977,
        -395.5467834472656,
        19.907739639282227
      ],
      "type": "VEC3"
    },
    {
      "bufferView": 0,
      "byteOffset": 4778288,
      "componentType": 5125,
      "count": 6526,
      "type": "SCALAR"
    }
  ],
  "asset": {
    "extras": {
      "author": "GagoSahi (https://sketchfab.com/bagusbanga12)",
      "license": "CC-BY-4.0 (http://creativecommons.org/licenses/by/4.0/)",
      "source": "https://sketchfab.com/3d-models/toyota-levin-ae85-grandfather-3b28a0e0d6ec43929f77002a65805042",
      "title": "Toyota Levin AE85 Grandfather"
    },
    "generator": "Sketchfab-16.93.0",
    "version": "2.0"
  },
  "bufferViews": [
    {
      "buffer": 0,
      "byteLength": 4804392,
      "name": "floatBufferViews",
      "target": 34963
    },
    {
      "buffer": 0,
      "byteLength": 8413656,
      "byteOffset": 4804392,
      "byteStride": 12,
      "name": "floatBufferViews",
      "target": 34962
    }
  ],
  "buffers": [
    {
      "byteLength": 13218048,
      "uri": "scene.bin"
    }
  ],
  "materials": [
    {
      "name": "edge_color000255",
      "pbrMetallicRoughness": {
        "metallicFactor": 0.0,
        "roughnessFactor": 0.6
      }
    },
    {
      "name": "Matte__FF000000",
      "pbrMetallicRoughness": {
        "baseColorFactor": [
          0.00784314,
          0.00784314,
          0.00784314,
          1.0
        ],
        "metallicFactor": 0.0,
        "roughnessFactor": 0.6
      }
    },
    {
      "name": "Color_B07g334g34g34",
      "pbrMetallicRoughness": {
        "baseColorFactor": [
          0.0,
          0.0,
          0.0,
          1.0
        ],
        "metallicFactor": 0.0,
        "roughnessFactor": 0.6
      }
    },
    {
      "name": "remap__prim_env",
      "pbrMetallicRoughness": {
        "metallicFactor": 0.0,
        "roughnessFactor": 0.6
      }
    },
    {
      "name": "remap__env_9_sp",
      "pbrMetallicRoughness": {
        "baseColorFactor": [
          0.0196078,
          0.0196078,
          0.0196078,
          1.0
        ],
        "metallicFactor": 0.0,
        "roughnessFactor": 0.6
      }
    },
    {
      "name": "Matte__FFCCCCCC",
      "pbrMetallicRoughness": {
        "baseColorFactor": [
          0.8,
          0.8,
          0.8,
          1.0
        ],
        "metallicFactor": 0.0,
        "roughnessFactor": 0.6
      }
    },
    {
      "name": "remap__env_9_01",
      "pbrMetallicRoughness": {
        "baseColorFactor": [
          0.027451,
          0.027451,
          0.027451,
          1.0
        ],
        "metallicFactor": 0.0,
        "roughnessFactor": 0.6
      }
    },
    {
      "name": "interior__spec",
      "pbrMetallicRoughness": {
        "baseColorFactor": [
          0.027451,
          0.027451,
          0.027451,
          1.0
        ],
        "metallicFactor": 0.0,
        "roughnessFactor": 0.6
      }
    },
    {
      "alphaMode": "BLEND",
      "name": "Color_F07g35g34g34fewvcr4g",
      "pbrMetallicRoughness": {
        "baseColorFactor": [
          0.611765,
          0.827451,
          1.0,
          0.490196
        ],
        "metallicFactor": 0.0,
        "roughnessFactor": 0.6
      }
    },
    {
      "name": "mirror__spec",
      "pbrMetallicRoughness": {
        "metallicFactor": 0.0,
        "roughnessFactor": 0.6
      }
    },
    {
      "name": "Matte__FF3",
      "pbrMetallicRoughness": {
        "baseColorFactor": [
          0.0196078,
          0.0196078,
          0.0196078,
          1.0
        ],
        "metallicFactor": 0.0,
        "roughnessFactor": 0.6
      }
    },
    {
      "name": "Color_B08y3y34yt34ty34t",
      "pbrMetallicRoughness": {
        "baseColorFactor": [
          0.0,
          0.0,
          0.0,
          1.0
        ],
        "metallicFactor": 0.0,
        "roughnessFactor": 0.6
      }
    },
    {
      "name": "Matte__FF333333",
      "pbrMetallicRoughness": {
        "baseColorFactor": [
          0.2,
          0.2,
          0.2,
          1.0
        ],
        "metallicFactor": 0.0,
        "roughnessFactor": 0.6
      }
    },
    {
      "name": "Matte__FF2",
      "pbrMetallicRoughness": {
        "baseColorFactor": [
          0.0,
          0.0,
          0.0,
          1.0
        ],
        "metallicFactor": 0.0,
        "roughnessFactor": 0.6
      }
    },
    {
      "name": "remap__prim_env1",
      "pbrMetallicRoughness": {
        "baseColorFactor": [
          0.756863,
          0.756863,
          0.756863,
          1.0
        ],
        "metallicFactor": 0.0,
        "roughnessFactor": 0.6
      }
    },
    {
      "name": "sprinter__spec",
      "pbrMetallicRoughness": {
        "baseColorFactor": [
          0.0196078,
          0.0196078,
          0.0196078,
          1.0
        ],
        "metallicFactor": 0.0,
        "roughnessFactor": 0.6
      }
    },
    {
      "name": "vehiclelights1",
      "pbrMetallicRoughness": {
        "baseColorFactor": [
          0.0,
          0.0,
          0.0,
          1.0
        ],
        "metallicFactor": 0.0,
        "roughnessFactor": 0.6
      }
    },
    {
      "name": "edge_color555255",
      "pbrMetallicRoughness": {
        "metallicFactor": 0.0,
        "roughnessFactor": 0.6
      }
    },
    {
      "name": "edge_color51120255",
      "pbrMetallicRoughness": {
        "metallicFactor": 0.0,
        "roughnessFactor": 0.6
      }
    },
    {
      "name": "zenki__env_9_sp",
      "pbrMetallicRoughness": {
        "baseColorFactor": [
          0.266667,
          0.00392157,
          0.0,
          1.0
        ],
        "metallicFactor": 0.0,
        "roughnessFactor": 0.6
      }
    },
    {
      "name": "Color_B03g43g34g34gve",
      "pbrMetallicRoughness": {
        "baseColorFactor": [
          0.0862745,
          0.0862745,
          0.0862745,
          1.0
        ],
        "metallicFactor": 0.0,
        "roughnessFactor": 0.6
      }
    },
    {
      "name": "Color_B07g54g54ger54e",
      "pbrMetallicRoughness": {
        "baseColorFactor": [
          0.2,
          0.0470588,
          0.0,
          1.0
        ],
        "metallicFactor": 0.0,
        "roughnessFactor": 0.6
      }
    },
    {
      "name": "Color_K02",
      "pbrMetallicRoughness": {
        "baseColorFactor": [
          0.266667,
          0.0,
          0.0,
          1.0
        ],
        "metallicFactor": 0.0,
        "roughnessFactor": 0.6
      }
    },
    {
      "name": "Color_B03",
      "pbrMetallicRoughness": {
        "baseColorFactor": [
          0.317647,
          0.317647,
          0.317647,
          1.0
        ],
        "metallicFactor": 0.0,
        "roughnessFactor": 0.6
      }
    },
    {
      "alphaMode": "BLEND",
      "name": "foglight__env_9",
      "pbrMetallicRoughness": {
        "baseColorFactor": [
          1.0,
          0.8,
          0.0,
          0.831372
        ],
        "metallicFactor": 0.0,
        "roughnessFactor": 0.6
      }
    },
    {
      "name": "Matte__FFFFFF01",
      "pbrMetallicRoughness": {
        "metallicFactor": 0.0,
        "roughnessFactor": 0.6
      }
    },
    {
      "name": "indicator2__spe1",
      "pbrMetallicRoughness": {
        "baseColorFactor": [
          0.329412,
          0.0313725,
          0.0,
          1.0
        ],
        "metallicFactor": 0.0,
        "roughnessFactor": 0.6
      }
    },
    {
      "alphaMode": "BLEND",
      "name": "indicator2__env",
      "pbrMetallicRoughness": {
        "baseColorFactor": [
          0.207843,
          0.00392157,
          0.0,
          0.788235
        ],
        "metallicFactor": 0.0,
        "roughnessFactor": 0.6
      }
    },
    {
      "name": "Matte__FF1",
      "pbrMetallicRoughness": {
        "baseColorFactor": [
          0.0196078,
          0.0196078,
          0.0196078,
          1.0
        ],
        "metallicFactor": 0.0,
        "roughnessFactor": 0.6
      }
    },
    {
      "name": "fog__spec",
      "pbrMetallicRoughness": {
        "baseColorFactor": [
          0.0470588,
          0.0470588,
          0.0470588,
          1.0
        ],
        "metallicFactor": 0.0,
        "roughnessFactor": 0.6
      }
    },
    {
      "name": "vehiclelights12",
      "pbrMetallicRoughness": {
        "metallicFactor": 0.0,
        "roughnessFactor": 0.6
      }
    },
    {
      "alphaMode": "BLEND",
      "name": "vehiclelights01",
      "pbrMetallicRoughness": {
        "baseColorFactor": [
          0.239216,
          0.239216,
          0.239216,
          0.278431
        ],
        "metallicFactor": 0.0,
        "roughnessFactor": 0.6
      }
    },
    {
      "name": "edge_color165165165255",
      "pbrMetallicRoughness": {
        "metallicFactor": 0.0,
        "roughnessFactor": 0.6
      }
    },
    {
      "name": "Color_K02h53g34g34g3",
      "pbrMetallicRoughness": {
        "baseColorFactor": [
          0.647059,
          0.647059,
          0.647059,
          1.0
        ],
        "metallicFactor": 0.0,
        "roughnessFactor": 0.6
      }
    },
    {
      "name": "Color_D07g43g34f34f",
      "pbrMetallicRoughness": {
        "baseColorFactor": [
          0.0,
          0.0,
          0.0,
          1.0
        ],
        "metallicFactor": 0.0,
        "roughnessFactor": 0.6
      }
    },
    {
      "alphaMode": "BLEND",
      "name": "remap__env_9_1",
      "pbrMetallicRoughness": {
        "baseColorFactor": [
          0.027451,
          0.027451,
          0.027451,
          0.458823
        ],
        "metallicFactor": 0.0,
        "roughnessFactor": 0.6
      }
    },
    {
      "name": "Color_F07rju6j5j56j",
      "pbrMetallicRoughness": {
        "baseColorFactor": [
          0.901961,
          1.0,
          0.666667,
          1.0
        ],
        "metallicFactor": 0.0,
        "roughnessFactor": 0.6
      }
    },
    {
      "name": "lights5__spec",
      "pbrMetallicRoughness": {
        "metallicFactor": 0.0,
        "roughnessFactor": 0.6
      }
    },
    {
      "name": "Color_H03",
      "pbrMetallicRoughness": {
        "baseColorFactor": [
          0.0784314,
          0.0784314,
          0.0627451,
          1.0
        ],
        "metallicFactor": 0.0,
        "roughnessFactor": 0.6
      }
    },
    {
      "name": "lights_lod0__sp1",
      "pbrMetallicRoughness": {
        "baseColorFactor": [
          0.176471,
          0.176471,
          0.176471,
          1.0
        ],
        "metallicFactor": 0.0,
        "roughnessFactor": 0.6
      }
    },
    {
      "name": "muffler_texture",
      "pbrMetallicRoughness": {
        "metallicFactor": 0.0,
        "roughnessFactor": 0.6
      }
    },
    {
      "name": "roof__spec",
      "pbrMetallicRoughness": {
        "metallicFactor": 0.0,
        "roughnessFactor": 0.6
      }
    },
    {
      "name": "dash_zenki__spe",
      "pbrMetallicRoughness": {
        "metallicFactor": 0.0,
        "roughnessFactor": 0.6
      }
    },
    {
      "name": "cond__spec",
      "pbrMetallicRoughness": {
        "metallicFactor": 0.0,
        "roughnessFactor": 0.6
      }
    },
    {
      "name": "bride_zero_blac",
      "pbrMetallicRoughness": {
        "baseColorFactor": [
          0.137255,
          0.137255,
          0.137255,
          1.0
        ],
        "metallicFactor": 0.0,
        "roughnessFactor": 0.6
      }
    },
    {
      "name": "hks_boost__spec",
      "pbrMetallicRoughness": {
        "metallicFactor": 0.0,
        "roughnessFactor": 0.6
      }
    },
    {
      "name": "Matte__FF868686",
      "pbrMetallicRoughness": {
        "baseColorFactor": [
          0.52549,
          0.52549,
          0.52549,
          1.0
        ],
        "metallicFactor": 0.0,
        "roughnessFactor": 0.6
      }
    },
    {
      "name": "Matte__FF9D0000",
      "pbrMetallicRoughness": {
        "baseColorFactor": [
          0.615686,
          0.0,
          0.0,
          1.0
        ],
        "metallicFactor": 0.0,
        "roughnessFactor": 0.6
      }
    },
    {
      "alphaMode": "BLEND",
      "name": "Matte__73333333",
      "pbrMetallicRoughness": {
        "baseColorFactor": [
          0.2,
          0.2,
          0.2,
          0.458823
        ],
        "metallicFactor": 0.0,
        "roughnessFactor": 0.6
      }
    },
    {
      "name": "tkan_black__spe",
      "pbrMetallicRoughness": {
        "baseColorFactor": [
          0.0784314,
          0.0784314,
          0.0784314,
          1.0
        ],
        "metallicFactor": 0.0,
        "roughnessFactor": 0.6
      }
    },
    {
      "name": "Matte__FF004375",
      "pbrMetallicRoughness": {
        "baseColorFactor": [
          0.0,
          0.262745,
          0.458823,
          1.0
        ],
        "metallicFactor": 0.0,
        "roughnessFactor": 0.6
      }
    },
    {
      "name": "sparco__spec",
      "pbrMetallicRoughness": {
        "baseColorFactor": [
          0.0784314,
          0.0784314,
          0.0784314,
          1.0
        ],
        "metallicFactor": 0.0,
        "roughnessFactor": 0.6
      }
    },
    {
      "name": "default_grey__e",
      "pbrMetallicRoughness": {
        "metallicFactor": 0.0,
        "roughnessFactor": 0.6
      }
    },
    {
      "name": "default_grey__s1",
      "pbrMetallicRoughness": {
        "baseColorFactor": [
          0.0196078,
          0.0196078,
          0.0196078,
          1.0
        ],
        "metallicFactor": 0.0,
        "roughnessFactor": 0.6
      }
    },
    {
      "name": "advan_neova1",
      "pbrMetallicRoughness": {
        "baseColorFactor": [
          0.0196078,
          0.0196078,
          0.0196078,
          1.0
        ],
        "metallicFactor": 0.0,
        "roughnessFactor": 0.6
      }
    },
    {
      "name": "brake__spec_2",
      "pbrMetallicRoughness": {
        "baseColorFactor": [
          0.14902,
          0.14902,
          0.14902,
          1.0
        ],
        "metallicFactor": 0.0,
        "roughnessFactor": 0.6
      }
    },
    {
      "name": "Matte__FF191919",
      "pbrMetallicRoughness": {
        "baseColorFactor": [
          1.0,
          0.0,
          0.0,
          1.0
        ],
        "metallicFactor": 0.0,
        "roughnessFactor": 0.6
      }
    },
    {
      "name": "r34_badges__spe",
      "pbrMetallicRoughness": {
        "metallicFactor": 0.0,
        "roughnessFactor": 0.6
      }
    },
    {
      "name": "edge_color255255255255",
      "pbrMetallicRoughness": {
        "metallicFactor": 0.0,
        "roughnessFactor": 0.6
      }
    },
    {
      "name": "edge_color222255",
      "pbrMetallicRoughness": {
        "metallicFactor": 0.0,
        "roughnessFactor": 0.6
      }
    },
    {
      "name": "bigradiator__sp",
      "pbrMetallicRoughness": {
        "baseColorFactor": [
          0.00784314,
          0.00784314,
          0.00784314,
          1.0
        ],
        "metallicFactor": 0.0,
        "roughnessFactor": 0.6
      }
    },
    {
      "name": "engine__spec",
      "pbrMetallicRoughness": {
        "baseColorFactor": [
          0.00784314,
          0.00784314,
          0.00784314,
          1.0
        ],
        "metallicFactor": 0.0,
        "roughnessFactor": 0.6
      }
    },
    {
      "name": "forza_underbody",
      "pbrMetallicRoughness": {
        "baseColorFactor": [
          0.0196078,
          0.0196078,
          0.0196078,
          1.0
        ],
        "metallicFactor": 0.0,
        "roughnessFactor": 0.6
      }
    }
  ],
  "meshes": [
    {
      "name": "Material2",
      "primitives": [
        {
          "attributes": {
            "NORMAL": 1,
            "POSITION": 0
          },
          "indices": 2,
          "material": 1,
          "mode": 4
        }
      ]
    },
    {
      "name": "Material2",
      "primitives": [
        {
          "attributes": {
            "NORMAL": 4,
            "POSITION": 3
          },
          "indices": 5,
          "material": 2,
          "mode": 4
        }
      ]
    },
    {
      "name": "Material2",
      "primitives": [
        {
          "attributes": {
            "NORMAL": 7,
            "POSITION": 6
          },
          "indices": 8,
          "material": 2,
          "mode": 4
        }
      ]
    },
    {
      "name": "Material3",
      "primitives": [
        {
          "attributes": {
            "NORMAL": 10,
            "POSITION": 9
          },
          "indices": 11,
          "material": 3,
          "mode": 4
        }
      ]
    },
    {
      "name": "Material3",
      "primitives": [
        {
          "attributes": {
            "NORMAL": 13,
            "POSITION": 12
          },
          "indices": 14,
          "material": 4,
          "mode": 4
        }
      ]
    },
    {
      "name": "Material2",
      "primitives": [
        {
          "attributes": {
            "NORMAL": 16,
            "POSITION": 15
          },
          "indices": 17,
          "material": 5,
          "mode": 4
        }
      ]
    },
    {
      "name": "Material2",
      "primitives": [
        {
          "attributes": {
            "NORMAL": 19,
            "POSITION": 18
          },
          "indices": 20,
          "material": 6,
          "mode": 4
        }
      ]
    },
    {
      "name": "Material2",
      "primitives": [
        {
          "attributes": {
            "NORMAL": 22,
            "POSITION": 21
          },
          "indices": 23,
          "material": 7,
          "mode": 4
        }
      ]
    },
    {
      "name": "Material3",
      "primitives": [
        {
          "attributes": {
            "NORMAL": 25,
            "POSITION": 24
          },
          "indices": 26,
          "material": 8,
          "mode": 4
        }
      ]
    },
    {
      "name": "Material2",
      "primitives": [
        {
          "attributes": {
            "NORMAL": 28,
            "POSITION": 27
          },
          "indices": 29,
          "material": 9,
          "mode": 4
        }
      ]
    },
    {
      "name": "Material2",
      "primitives": [
        {
          "attributes": {
            "NORMAL": 31,
            "POSITION": 30
          },
          "indices": 32,
          "material": 10,
          "mode": 4
        }
      ]
    },
    {
      "name": "Material2",
      "primitives": [
        {
          "attributes": {
            "NORMAL": 34,
            "POSITION": 33
          },
          "indices": 35,
          "material": 11,
          "mode": 4
        }
      ]
    },
    {
      "name": "Material3",
      "primitives": [
        {
          "attributes": {
            "NORMAL": 37,
            "POSITION": 36
          },
          "indices": 38,
          "material": 12,
          "mode": 4
        }
      ]
    },
    {
      "name": "Material3",
      "primitives": [
        {
          "attributes": {
            "NORMAL": 40,
            "POSITION": 39
          },
          "indices": 41,
          "material": 13,
          "mode": 4
        }
      ]
    },
    {
      "name": "Material3",
      "primitives": [
        {
          "attributes": {
            "NORMAL": 43,
            "POSITION": 42
          },
          "indices": 44,
          "material": 14,
          "mode": 4
        }
      ]
    },
    {
      "name": "Material3",
      "primitives": [
        {
          "attributes": {
            "NORMAL": 46,
            "POSITION": 45
          },
          "indices": 47,
          "material": 15,
          "mode": 4
        }
      ]
    },
    {
      "name": "Material3",
      "primitives": [
        {
          "attributes": {
            "NORMAL": 49,
            "POSITION": 48
          },
          "indices": 50,
          "material": 16,
          "mode": 4
        }
      ]
    },
    {
      "name": "Material5",
      "primitives": [
        {
          "attributes": {
            "POSITION": 51
          },
          "indices": 52,
          "material": 18,
          "mode": 1
        }
      ]
    },
    {
      "name": "Material3",
      "primitives": [
        {
          "attributes": {
            "NORMAL": 54,
            "POSITION": 53
          },
          "indices": 55,
          "material": 19,
          "mode": 4
        }
      ]
    },
    {
      "name": "Material3",
      "primitives": [
        {
          "attributes": {
            "NORMAL": 57,
            "POSITION": 56
          },
          "indices": 58,
          "material": 20,
          "mode": 4
        }
      ]
    },
    {
      "name": "Material3",
      "primitives": [
        {
          "attributes": {
            "NORMAL": 60,
            "POSITION": 59
          },
          "indices": 61,
          "material": 21,
          "mode": 4
        }
      ]
    },
    {
      "name": "Material3",
      "primitives": [
        {
          "attributes": {
            "NORMAL": 63,
            "POSITION": 62
          },
          "indices": 64,
          "material": 22,
          "mode": 4
        }
      ]
    },
    {
      "name": "Material3",
      "primitives": [
        {
          "attributes": {
            "NORMAL": 66,
            "POSITION": 65
          },
          "indices": 67,
          "material": 23,
          "mode": 4
        }
      ]
    },
    {
      "name": "Material3",
      "primitives": [
        {
          "attributes": {
            "NORMAL": 69,
            "POSITION": 68
          },
          "indices": 70,
          "material": 24,
          "mode": 4
        }
      ]
    },
    {
      "name": "Material3",
      "primitives": [
        {
          "attributes": {
            "NORMAL": 72,
            "POSITION": 71
          },
          "indices": 73,
          "material": 25,
          "mode": 4
        }
      ]
    },
    {
      "name": "Material3",
      "primitives": [
        {
          "attributes": {
            "NORMAL": 75,
            "POSITION": 74
          },
          "indices": 76,
          "material": 26,
          "mode": 4
        }
      ]
    },
    {
      "name": "Material3",
      "primitives": [
        {
          "attributes": {
            "NORMAL": 78,
            "POSITION": 77
          },
          "indices": 79,
          "material": 27,
          "mode": 4
        }
      ]
    },
    {
      "name": "Material3",
      "primitives": [
        {
          "attributes": {
            "NORMAL": 81,
            "POSITION": 80
          },
          "indices": 82,
          "material": 28,
          "mode": 4
        }
      ]
    },
    {
      "name": "Material2",
      "primitives": [
        {
          "attributes": {
            "NORMAL": 84,
            "POSITION": 83
          },
          "indices": 85,
          "material": 29,
          "mode": 4
        }
      ]
    },
    {
      "name": "Material3",
      "primitives": [
        {
          "attributes": {
            "NORMAL": 87,
            "POSITION": 86
          },
          "indices": 88,
          "material": 30,
          "mode": 4
        }
      ]
    },
    {
      "name": "Material3",
      "primitives": [
        {
          "attributes": {
            "NORMAL": 90,
            "POSITION": 89
          },
          "indices": 91,
          "material": 31,
          "mode": 4
        }
      ]
    },
    {
      "name": "Material4",
      "primitives": [
        {
          "attributes": {
            "POSITION": 92
          },
          "indices": 93,
          "material": 32,
          "mode": 1
        }
      ]
    },
    {
      "name": "Material2",
      "primitives": [
        {
          "attributes": {
            "NORMAL": 95,
            "POSITION": 94
          },
          "indices": 96,
          "material": 33,
          "mode": 4
        }
      ]
    },
    {
      "name": "Material3",
      "primitives": [
        {
          "attributes": {
            "NORMAL": 98,
            "POSITION": 97
          },
          "indices": 99,
          "material": 34,
          "mode": 4
        }
      ]
    },
    {
      "name": "Material3",
      "primitives": [
        {
          "attributes": {
            "NORMAL": 101,
            "POSITION": 100
          },
          "indices": 102,
          "material": 35,
          "mode": 4
        }
      ]
    },
    {
      "name": "Material3",
      "primitives": [
        {
          "attributes": {
            "NORMAL": 104,
            "POSITION": 103
          },
          "indices": 105,
          "material": 36,
          "mode": 4
        }
      ]
    },
    {
      "name": "Material3",
      "primitives": [
        {
          "attributes": {
            "NORMAL": 107,
            "POSITION": 106
          },
          "indices": 108,
          "material": 37,
          "mode": 4
        }
      ]
    },
    {
      "name": "Material3",
      "primitives": [
        {
          "attributes": {
            "NORMAL": 110,
            "POSITION": 109
          },
          "indices": 111,
          "material": 38,
          "mode": 4
        }
      ]
    },
    {
      "name": "Material3",
      "primitives": [
        {
          "attributes": {
            "NORMAL": 113,
            "POSITION": 112
          },
          "indices": 114,
          "material": 39,
          "mode": 4
        }
      ]
    },
    {
      "name": "Material3",
      "primitives": [
        {
          "attributes": {
            "NORMAL": 116,
            "POSITION": 115
          },
          "indices": 117,
          "material": 40,
          "mode": 4
        }
      ]
    },
    {
      "name": "Material3",
      "primitives": [
        {
          "attributes": {
            "NORMAL": 119,
            "POSITION": 118
          },
          "indices": 120,
          "material": 41,
          "mode": 4
        }
      ]
    },
    {
      "name": "Material3",
      "primitives": [
        {
          "attributes": {
            "NORMAL": 122,
            "POSITION": 121
          },
          "indices": 123,
          "material": 42,
          "mode": 4
        }
      ]
    },
    {
      "name": "Material3",
      "primitives": [
        {
          "attributes": {
            "NORMAL": 125,
            "POSITION": 124
          },
          "indices": 126,
          "material": 43,
          "mode": 4
        }
      ]
    },
    {
      "name": "Material2",
      "primitives": [
        {
          "attributes": {
            "NORMAL": 128,
            "POSITION": 127
          },
          "indices": 129,
          "material": 44,
          "mode": 4
        }
      ]
    },
    {
      "name": "Material3",
      "primitives": [
        {
          "attributes": {
            "NORMAL": 131,
            "POSITION": 130
          },
          "indices": 132,
          "material": 45,
          "mode": 4
        }
      ]
    },
    {
      "name": "Material3",
      "primitives": [
        {
          "attributes": {
            "NORMAL": 134,
            "POSITION": 133
          },
          "indices": 135,
          "material": 46,
          "mode": 4
        }
      ]
    },
    {
      "name": "Material3",
      "primitives": [
        {
          "attributes": {
            "NORMAL": 137,
            "POSITION": 136
          },
          "indices": 138,
          "material": 47,
          "mode": 4
        }
      ]
    },
    {
      "name": "Material3",
      "primitives": [
        {
          "attributes": {
            "NORMAL": 140,
            "POSITION": 139
          },
          "indices": 141,
          "material": 48,
          "mode": 4
        }
      ]
    },
    {
      "name": "Material3",
      "primitives": [
        {
          "attributes": {
            "NORMAL": 143,
            "POSITION": 142
          },
          "indices": 144,
          "material": 49,
          "mode": 4
        }
      ]
    },
    {
      "name": "Material3",
      "primitives": [
        {
          "attributes": {
            "NORMAL": 146,
            "POSITION": 145
          },
          "indices": 147,
          "material": 50,
          "mode": 4
        }
      ]
    },
    {
      "name": "Material3",
      "primitives": [
        {
          "attributes": {
            "NORMAL": 149,
            "POSITION": 148
          },
          "indices": 150,
          "material": 51,
          "mode": 4
        }
      ]
    },
    {
      "name": "Material3",
      "primitives": [
        {
          "attributes": {
            "NORMAL": 152,
            "POSITION": 151
          },
          "indices": 153,
          "material": 52,
          "mode": 4
        }
      ]
    },
    {
      "name": "Material3",
      "primitives": [
        {
          "attributes": {
            "NORMAL": 155,
            "POSITION": 154
          },
          "indices": 156,
          "material": 53,
          "mode": 4
        }
      ]
    },
    {
      "name": "Material3",
      "primitives": [
        {
          "attributes": {
            "NORMAL": 158,
            "POSITION": 157
          },
          "indices": 159,
          "material": 54,
          "mode": 4
        }
      ]
    },
    {
      "name": "Material3",
      "primitives": [
        {
          "attributes": {
            "NORMAL": 161,
            "POSITION": 160
          },
          "indices": 162,
          "material": 55,
          "mode": 4
        }
      ]
    },
    {
      "name": "Material3",
      "primitives": [
        {
          "attributes": {
            "NORMAL": 164,
            "POSITION": 163
          },
          "indices": 165,
          "material": 56,
          "mode": 4
        }
      ]
    },
    {
      "name": "Material3",
      "primitives": [
        {
          "attributes": {
            "NORMAL": 167,
            "POSITION": 166
          },
          "indices": 168,
          "material": 57,
          "mode": 4
        }
      ]
    },
    {
      "name": "Material5",
      "primitives": [
        {
          "attributes": {
            "POSITION": 169
          },
          "indices": 170,
          "material": 58,
          "mode": 1
        }
      ]
    },
    {
      "name": "Material6",
      "primitives": [
        {
          "attributes": {
            "POSITION": 171
          },
          "indices": 172,
          "material": 59,
          "mode": 1
        }
      ]
    },
    {
      "name": "Material3",
      "primitives": [
        {
          "attributes": {
            "NORMAL": 174,
            "POSITION": 173
          },
          "indices": 175,
          "material": 60,
          "mode": 4
        }
      ]
    },
    {
      "name": "Material3",
      "primitives": [
        {
          "attributes": {
            "NORMAL": 177,
            "POSITION": 176
          },
          "indices": 178,
          "material": 61,
          "mode": 4
        }
      ]
    },
    {
      "name": "Material3",
      "primitives": [
        {
          "attributes": {
            "NORMAL": 180,
            "POSITION": 179
          },
          "indices": 181,
          "material": 62,
          "mode": 4
        }
      ]
    },
    {
      "name": "Material2",
      "primitives": [
        {
          "attributes": {
            "POSITION": 182
          },
          "indices": 183,
          "material": 0,
          "mode": 1
        }
      ]
    },
    {
      "name": "Material4",
      "primitives": [
        {
          "attributes": {
            "POSITION": 184
          },
          "indices": 185,
          "material": 0,
          "mode": 1
        }
      ]
    },
    {
      "name": "Material4",
      "primitives": [
        {
          "attributes": {
            "POSITION": 186
          },
          "indices": 187,
          "material": 0,
          "mode": 1
        }
      ]
    },
    {
      "name": "Material2",
      "primitives": [
        {
          "attributes": {
            "POSITION": 188
          },
          "indices": 189,
          "material": 17,
          "mode": 1
        }
      ]
    }
  ],
  "nodes": [
    {
      "children": [
        1
      ],
      "matrix": [
        1.0,
        0.0,
        0.0,
        0.0,
        0.0,
        2.220446049250313e-16,
        -1.0,
        0.0,
        0.0,
        1.0,
        2.220446049250313e-16,
        0.0,
        0.0,
        0.0,
        0.0,
        1.0
      ],
      "name": "Sketchfab_model"
    },
    {
      "children": [
        2,
        3,
        4,
        5,
        6,
        7,
        8,
        9,
        10,
        11,
        12,
        13,
        14,
        15,
        16,
        17,
        18,
        19,
        20,
        21,
        22,
        23,
        24,
        25,
        26,
        27,
        28,
        29,
        30,
        31,
        32,
        33,
        34,
        35,
        36,
        37,
        38,
        39,
        40,
        41,
        42,
        43,
        44,
        45,
        46,
        47,
        48,
        49,
        50,
        51,
        52,
        53,
        54,
        55,
        56,
        57,
        58,
        59,
        60,
        61,
        62,
        63,
        64,
        65,
        66,
        67,
        68
      ],
      "name": "Collada visual scene group"
    },
    {
      "mesh": 0,
      "name": "Material2"
    },
    {
      "mesh": 1,
      "name": "Material2"
    },
    {
      "mesh": 2,
      "name": "Material2"
    },
    {
      "mesh": 3,
      "name": "Material3"
    },
    {
      "mesh": 4,
      "name": "Material3"
    },
    {
      "mesh": 5,
      "name": "Material2"
    },
    {
      "mesh": 6,
      "name": "Material2"
    },
    {
      "mesh": 7,
      "name": "Material2"
    },
    {
      "mesh": 8,
      "name": "Material3"
    },
    {
      "mesh": 9,
      "name": "Material2"
    },
    {
      "mesh": 10,
      "name": "Material2"
    },
    {
      "mesh": 11,
      "name": "Material2"
    },
    {
      "mesh": 12,
      "name": "Material3"
    },
    {
      "mesh": 13,
      "name": "Material3"
    },
    {
      "mesh": 14,
      "name": "Material3"
    },
    {
      "mesh": 15,
      "name": "Material3"
    },
    {
      "mesh": 16,
      "name": "Material3"
    },
    {
      "mesh": 17,
      "name": "Material5"
    },
    {
      "mesh": 18,
      "name": "Material3"
    },
    {
      "mesh": 19,
      "name": "Material3"
    },
    {
      "mesh": 20,
      "name": "Material3"
    },
    {
      "mesh": 21,
      "name": "Material3"
    },
    {
      "mesh": 22,
      "name": "Material3"
    },
    {
      "mesh": 23,
      "name": "Material3"
    },
    {
      "mesh": 24,
      "name": "Material3"
    },
    {
      "mesh": 25,
      "name": "Material3"
    },
    {
      "mesh": 26,
      "name": "Material3"
    },
    {
      "mesh": 27,
      "name": "Material3"
    },
    {
      "mesh": 28,
      "name": "Material2"
    },
    {
      "mesh": 29,
      "name": "Material3"
    },
    {
      "mesh": 30,
      "name": "Material3"
    },
    {
      "mesh": 31,
      "name": "Material4"
    },
    {
      "mesh": 32,
      "name": "Material2"
    },
    {
      "mesh": 33,
      "name": "Material3"
    },
    {
      "mesh": 34,
      "name": "Material3"
    },
    {
      "mesh": 35,
      "name": "Material3"
    },
    {
      "mesh": 36,
      "name": "Material3"
    },
    {
      "mesh": 37,
      "name": "Material3"
    },
    {
      "mesh": 38,
      "name": "Material3"
    },
    {
      "mesh": 39,
      "name": "Material3"
    },
    {
      "mesh": 40,
      "name": "Material3"
    },
    {
      "mesh": 41,
      "name": "Material3"
    },
    {
      "mesh": 42,
      "name": "Material3"
    },
    {
      "mesh": 43,
      "name": "Material2"
    },
    {
      "mesh": 44,
      "name": "Material3"
    },
    {
      "mesh": 45,
      "name": "Material3"
    },
    {
      "mesh": 46,
      "name": "Material3"
    },
    {
      "mesh": 47,
      "name": "Material3"
    },
    {
      "mesh": 48,
      "name": "Material3"
    },
    {
      "mesh": 49,
      "name": "Material3"
    },
    {
      "mesh": 50,
      "name": "Material3"
    },
    {
      "mesh": 51,
      "name": "Material3"
    },
    {
      "mesh": 52,
      "name": "Material3"
    },
    {
      "mesh": 53,
      "name": "Material3"
    },
    {
      "mesh": 54,
      "name": "Material3"
    },
    {
      "mesh": 55,
      "name": "Material3"
    },
    {
      "mesh": 56,
      "name": "Material3"
    },
    {
      "mesh": 57,
      "name": "Material5"
    },
    {
      "mesh": 58,
      "name": "Material6"
    },
    {
      "mesh": 59,
      "name": "Material3"
    },
    {
      "mesh": 60,
      "name": "Material3"
    },
    {
      "mesh": 61,
      "name": "Material3"
    },
    {
      "mesh": 62,
      "name": "Material2"
    },
    {
      "mesh": 63,
      "name": "Material4"
    },
    {
      "mesh": 64,
      "name": "Material4"
    },
    {
      "mesh": 65,
      "name": "Material2"
    },
    {
      "children": [
        69,
        71,
        73,
        75,
        77,
        79,
        81,
        83,
        85,
        87,
        89,
        91,
        93,
        95,
        97
      ],
      "name": "SketchUp"
    },
    {
      "children": [
        70
      ],
      "matrix": [
        0.5732027,
        0.8194137,
        0.0,
        0.0,
        -0.1344992,
        0.09408595,
        0.9864369,
        0.0,
        0.8082999,
        -0.5654283,
        0.1641408,
        0.0,
        599.5959,
        -613.8736,
        159.927,
        1.0
      ],
      "name": "skp_camera_Last_Saved_SketchUp_View"
    },
    {
      "name": "ID1"
    },
    {
      "children": [
        72
      ],
      "matrix": [
        0.5732027,
        0.8194137,
        0.0,
        0.0,
        -0.1344992,
        0.09408595,
        0.9864369,
        0.0,
        0.8082999,
        -0.5654283,
        0.1641408,
        0.0,
        599.5959,
        -613.8736,
        159.927,
        1.0
      ],
      "name": "skp_camera_Escena1"
    },
    {
      "name": "ID2"
    },
    {
      "children": [
        74
      ],
      "matrix": [
        -0.5267885,
        -0.8499964,
        -2.775558e-17,
        0.0,
        0.1593754,
        -0.09877349,
        0.9822643,
        0.0,
        -0.8349212,
        0.5174456,
        0.1875012,
        0.0,
        -508.7081,
        164.8442,
        178.4995,
        1.0
      ],
      "name": "skp_camera_Escena2"
    },
    {
      "name": "ID3"
    },
    {
      "children": [
        76
      ],
      "matrix": [
        -0.01629141,
        -0.9998673,
        -2.602085e-18,
        0.0,
        0.1592114,
        -0.002594123,
        0.9872411,
        0.0,
        -0.9871101,
        0.01608355,
        0.1592326,
        0.0,
        -678.8093,
        -197.6208,
        178.0812,
        1.0
      ],
      "name": "skp_camera_Escena3"
    },
    {
      "name": "ID4"
    },
    {
      "children": [
        78
      ],
      "matrix": [
        0.7259204,
        -0.6278552,
        -0.28078,
        0.0,
        0.2512534,
        -0.137944,
        0.9580413,
        0.0,
        -0.6402432,
        -0.7660086,
        0.05761444,
        0.0,
        -288.016,
        -691.7004,
        80.20322,
        1.0
      ],
      "name": "skp_camera_Escena4"
    },
    {
      "name": "ID5"
    },
    {
      "children": [
        80
      ],
      "matrix": [
        1.0,
        0.0,
        0.0,
        0.0,
        0.0,
        0.0,
        1.0,
        0.0,
        0.0,
        -1.0,
        0.0,
        0.0,
        60.83648,
        -917.0806,
        70.77021,
        1.0
      ],
      "name": "skp_camera_Escena5"
    },
    {
      "name": "ID6"
    },
    {
      "children": [
        82
      ],
      "matrix": [
        -1.0,
        2.480155e-06,
        0.0,
        0.0,
        -3.009955e-07,
        -0.1213615,
        0.9926084,
        0.0,
        2.461823e-06,
        0.9926084,
        0.1213615,
        0.0,
        60.83828,
        488.7968,
        156.3963,
        1.0
      ],
      "name": "skp_camera_Escena6"
    },
    {
      "name": "ID7"
    },
    {
      "children": [
        84
      ],
      "matrix": [
        0.5687323,
        0.8225227,
        -5.20417e-18,
        0.0,
        -0.02496982,
        0.01726535,
        0.9995391,
        0.0,
        0.8221436,
        -0.5684702,
        0.03035761,
        0.0,
        609.7997,
        -616.7281,
        78.2735,
        1.0
      ],
      "name": "skp_camera_Escena7"
    },
    {
      "name": "ID8"
    },
    {
      "children": [
        86
      ],
      "matrix": [
        0.6492071,
        0.6181759,
        0.4431577,
        0.0,
        -0.5560316,
        -0.01183892,
        0.8310769,
        0.0,
        0.5189982,
        -0.7859506,
        0.3360394,
        0.0,
        398.3037,
        -783.1506,
        264.0667,
        1.0
      ],
      "name": "skp_camera_Escena8"
    },
    {
      "name": "ID9"
    },
    {
      "children": [
        88
      ],
      "matrix": [
        -0.5637331,
        -0.825957,
        6.938894e-18,
        0.0,
        0.06236804,
        -0.0425675,
        0.9971451,
        0.0,
        -0.8235989,
        0.5621237,
        0.07551003,
        0.0,
        -490.1852,
        192.9469,
        108.9622,
        1.0
      ],
      "name": "skp_camera_Escena9"
    },
    {
      "name": "ID10"
    },
    {
      "children": [
        90
      ],
      "matrix": [
        -0.4908963,
        -0.871218,
        -1.387779e-17,
        0.0,
        0.1268392,
        -0.07146879,
        0.9893453,
        0.0,
        -0.8619354,
        0.4856659,
        0.1455884,
        0.0,
        -534.7867,
        143.4343,
        153.7587,
        1.0
      ],
      "name": "skp_camera_Escena10"
    },
    {
      "name": "ID11"
    },
    {
      "children": [
        92
      ],
      "matrix": [
        -0.8175327,
        -0.5325215,
        -0.2192284,
        0.0,
        -0.1074565,
        -0.2329356,
        0.9665372,
        0.0,
        -0.5657679,
        0.8137333,
        0.1332096,
        0.0,
        -265.2708,
        340.0104,
        144.4504,
        1.0
      ],
      "name": "skp_camera_Escena11"
    },
    {
      "name": "ID12"
    },
    {
      "children": [
        94
      ],
      "matrix": [
        -0.9986107,
        0.05269495,
        0.0,
        0.0,
        -0.009980196,
        -0.1891325,
        0.9819009,
        0.0,
        0.05174122,
        0.9805366,
        0.1893957,
        0.0,
        65.03594,
        -89.06891,
        125.3773,
        1.0
      ],
      "name": "skp_camera_Escena12"
    },
    {
      "name": "ID13"
    },
    {
      "children": [
        96
      ],
      "matrix": [
        -0.9999478,
        -0.01021788,
        0.0,
        0.0,
        0.001233178,
        -0.1206819,
        0.9926904,
        0.0,
        -0.0101432,
        0.9926386,
        0.1206882,
        0.0,
        19.45086,
        -178.8375,
        111.2752,
        1.0
      ],
      "name": "skp_camera_Escena13"
    },
    {
      "name": "ID14"
    },
    {
      "children": [
        98
      ],
      "matrix": [
        0.7236103,
        0.6867222,
        0.06928818,
        0.0,
        -0.1862402,
        0.09760294,
        0.9776443,
        0.0,
        0.6646072,
        -0.7203377,
        0.1985217,
        0.0,
        460.1826,
        -697.2557,
        169.9788,
        1.0
      ],
      "name": "skp_camera_Escena14"
    },
    {
      "name": "ID15"
    }
  ],
  "scene": 0,
  "scenes": [
    {
      "name": "Sketchfab_Scene",
      "nodes": [
        0
      ]
    }
  ]
}
